<?xml version="1.0" standalone="no"?>
<!DOCTYPE svg PUBLIC "-//W3C//DTD SVG 20010904//EN"
 "http://www.w3.org/TR/2001/REC-SVG-20010904/DTD/svg10.dtd">
<svg version="1.0" xmlns="http://www.w3.org/2000/svg"
 width="1000.000000pt" height="1000.000000pt" viewBox="0 0 1000.000000 1000.000000"
 preserveAspectRatio="xMidYMid meet">

<g transform="translate(0.000000,1000.000000) scale(0.100000,-0.100000)"
fill="#000000" stroke="none">
<path d="M5852 5665 c-92 -26 -139 -60 -161 -118 -7 -19 -11 -203 -11 -543 0
-568 -1 -554 63 -611 60 -53 118 -65 332 -70 268 -7 385 21 442 106 22 32 23
43 23 217 l0 184 -140 0 -140 0 0 -200 c0 -231 -5 -250 -73 -281 -73 -33 -146
-20 -197 36 l-25 27 -3 566 c-2 371 1 579 7 603 18 60 52 83 130 87 77 5 119
-11 148 -55 15 -23 19 -59 23 -233 l5 -205 138 -3 137 -3 0 181 c0 200 -5 220
-62 263 -70 53 -115 61 -358 64 -173 2 -237 -1 -278 -12z"/>
<path d="M6965 5666 c-92 -23 -155 -72 -173 -134 -4 -15 -7 -259 -7 -542 0
-502 1 -516 21 -550 25 -44 72 -76 143 -98 83 -25 438 -25 533 1 81 23 143 71
158 125 6 23 10 226 10 542 0 475 -2 508 -19 547 -24 53 -76 88 -161 107 -82
20 -429 21 -505 2z m359 -25 c14 -14 30 -41 36 -60 6 -22 10 -253 10 -586 0
-504 -1 -553 -18 -584 -25 -50 -63 -74 -124 -78 -65 -5 -114 18 -143 68 -19
33 -20 52 -20 599 0 620 0 614 59 652 46 29 165 22 200 -11z"/>
<path d="M2380 5000 c0 -433 3 -660 10 -660 7 0 10 217 11 628 1 345 3 620 6
612 2 -8 64 -289 136 -625 l132 -610 101 -3 100 -3 134 626 135 626 3 -625 2
-626 140 0 140 0 0 660 0 661 -147 -3 -148 -3 -110 -517 c-60 -284 -112 -519
-115 -522 -3 -3 -57 225 -120 507 -62 282 -115 518 -118 525 -3 9 -42 12 -148
12 l-144 0 0 -660z"/>
<path d="M3732 5018 c-68 -354 -126 -651 -128 -660 -3 -11 0 -18 9 -18 11 0
19 24 30 83 9 45 28 146 43 225 l27 142 161 0 162 0 33 -177 c18 -98 37 -199
43 -225 l10 -48 139 0 c112 0 139 3 139 14 0 16 -238 1261 -246 1289 -5 15
-21 17 -152 17 l-148 0 -122 -642z m222 203 c42 -216 76 -399 76 -407 0 -11
-27 -14 -155 -14 -103 0 -155 4 -155 11 0 10 119 649 141 757 6 30 12 52 14
50 2 -2 38 -180 79 -397z"/>
<path d="M4580 5001 l0 -661 140 0 140 0 0 330 0 330 95 0 c123 0 159 -14 185
-72 18 -39 20 -67 20 -315 l0 -273 140 0 140 0 0 258 c0 239 -1 259 -20 290
-31 50 -92 81 -215 108 -27 6 -24 8 31 19 97 21 160 59 190 117 18 34 20 367
3 401 -22 43 -63 77 -118 99 -53 22 -71 23 -393 26 l-338 3 0 -660z m521 633
c53 -27 59 -58 59 -311 0 -309 -2 -313 -196 -313 l-104 0 0 320 0 320 105 0
c77 0 114 -4 136 -16z"/>
</g>
</svg>
